<?xml version="1.0" encoding="UTF-8"?>
<svg id="Layer_1" xmlns="http://www.w3.org/2000/svg" version="1.1" viewBox="0 0 800 800">
  <!-- Generator: Adobe Illustrator 29.7.1, SVG Export Plug-In . SVG Version: 2.1.1 Build 8)  -->
  <defs>
    <style>
      .st0 {
        fill: #fff;
      }

      .st0, .st1 {
        fill-rule: evenodd;
      }

      .st1 {
        fill: #3e75c3;
      }
    </style>
  </defs>
  <path class="st0" d="M474.4,591.9c14.7,12.7,27.8,37.9,27.8,76.3,0,55.1-.5,99.5-.5,113s3.2,15.3,11.3,18.8h-226.3c8.3-3.5,11.6-11.5,11.6-18.8s-.4-35.7-.6-70.1c-114.2,24.9-138.2-55.2-138.2-55.2-18.6-47.6-45.5-60.2-45.5-60.2-37.3-25.6,2.8-25,2.8-25,41.2,2.9,62.8,42.5,62.8,42.5,36.6,62.9,96,44.8,119.4,34.2,3.7-26.6,14.3-44.8,26-55.1-91.1-10.4-186.9-45.7-186.9-203.6s16-81.8,42.2-110.6c-4.2-10.4-18.3-52.3,4-109,0,0,34.5-11.1,112.8,42.2,32.8-9.1,67.8-13.7,102.7-13.9,34.8.2,70,4.7,102.7,13.9,78.3-53.3,112.7-42.2,112.7-42.2,22.4,56.7,8.3,98.6,4.1,109,26.3,28.8,42.2,65.6,42.2,110.6,0,158.2-95.9,193.1-187.3,203.3Z"/>
  <g id="Icons">
    <g id="Color-">
      <path class="st1" d="M800,151.3v497.5c0,83.5-67.7,151.3-151.3,151.3h-135.7c-8.1-3.5-11.3-11.5-11.3-18.8,0-13.5.5-57.9.5-113s-13.1-63.6-27.8-76.3c91.4-10.2,187.3-45,187.3-203.3s-15.9-81.8-42.2-110.6c4.2-10.4,18.3-52.3-4.1-109,0,0-34.4-11.1-112.7,42.2-32.8-9.1-67.9-13.7-102.7-13.9-34.9.2-70,4.7-102.7,13.9-78.4-53.3-112.8-42.2-112.8-42.2-22.3,56.7-8.2,98.6-4,109-26.3,28.8-42.2,65.6-42.2,110.6,0,157.9,95.8,193.2,186.9,203.6-11.7,10.3-22.3,28.5-26,55.1-23.4,10.5-82.8,28.7-119.4-34.2,0,0-21.7-39.6-62.8-42.5,0,0-40.1-.5-2.8,25,0,0,26.9,12.7,45.5,60.2,0,0,24.1,80.1,138.2,55.2.2,34.4.6,60.3.6,70.1s-3.3,15.3-11.6,18.8h-135.5C67.7,800,0,732.3,0,648.7V151.3C0,67.7,67.7,0,151.3,0h497.5c83.5,0,151.3,67.7,151.3,151.3Z"/>
      <path class="st1" d="M286.8,800c-4.2,1.8-9.6,2.3-16.4,1.1-1-.4-2.1-.7-3.1-1.1h19.6Z"/>
      <path class="st1" d="M532.9,800c-1,.3-2,.7-3,1-7.1,1.4-12.7.8-16.9-1h19.9Z"/>
    </g>
  </g>
</svg>