<?xml version="1.0" encoding="UTF-8"?>
<svg id="Layer_1" xmlns="http://www.w3.org/2000/svg" version="1.1" viewBox="0 0 800 800">
  <!-- Generator: Adobe Illustrator 29.7.1, SVG Export Plug-In . SVG Version: 2.1.1 Build 8)  -->
  <defs>
    <style>
      .st0 {
        fill-rule: evenodd;
      }

      .st0, .st1 {
        fill: #1793d1;
      }

      .st2 {
        fill: #fff;
      }
    </style>
  </defs>
  <g id="Icons">
    <g id="Color-">
      <rect class="st1" width="800" height="800" rx="151.3" ry="151.3"/>
      <path class="st0" d="M286.8,800c-4.2,1.8-9.6,2.3-16.4,1.1-1-.4-2.1-.7-3.1-1.1h19.6Z"/>
      <path class="st0" d="M532.9,800c-1,.3-2,.7-3,1-7.1,1.4-12.7.8-16.9-1h19.9Z"/>
    </g>
  </g>
  <path class="st2" d="M750,442.2c-2.6-3.5-35.9-19.2-51-37.4-15.2-18.2-30.7-38.8-26-45.5,4.8-6.6,13.9,2.6,18.9-4.2,0,0-14.1-12.1-33-44-18.9-31.9-23.1-45-49.3-76-26.2-31-71.7-63.2-111.2-107.9-39.5-44.7-90.3-108.5-90.3-108.5,0,0,8.1,58.3,78.5,150.6,0,0-97.5-95.5-143.4-166.2,0,0,22.2,80.8,72.4,148.1,0,0-40.7-5.5-107.9-56,0,0,2,22.5,4.6,37.2l-80.5-34.6,13,41.6-88.6-9.8,26.6,37.2-85.4,16.7,28.6,26.3-65.5,46.2,37.5,13-49.9,70.7,41.3,2.9-17,82.3,36.1-15.9,20.8,78.2,24.2-22.5s20.5,33.8,139.4,89.8c118.9,56,244.1,86,267.9,242.6,0,0,36.9-97.4-64.6-185.7-101.6-88.3-253.4-109.7-315.2-224-61.8-114.3,78.5-215.9,202-156.4,116.8,59.1,103.5,86.5,141.3,122.6,0,0,18.8,21.1,53.1,41,34.3,19.9,121,83.4,74.9,144.4,0,0,34.6-.9,70.4-34.6,35.8-33.8,30-58.6,27.4-62ZM591.5,296.3c-10.1-10.8-5.9-17.9-5.9-17.9,5.9-1.7,9.8,2,18.6,16,8.8,14,21.8,27.8,21.8,27.8-11-1.7-24.4-15.2-34.5-26Z"/>
</svg>