<?xml version="1.0" encoding="UTF-8"?>
<svg id="svg9" xmlns="http://www.w3.org/2000/svg" version="1.1" xmlns:svg="http://www.w3.org/2000/svg" viewBox="0 0 666.7 666.7">
  <!-- Generator: Adobe Illustrator 29.7.1, SVG Export Plug-In . SVG Version: 2.1.1 Build 8)  -->
  <defs>
    <style>
      .st0 {
        fill: #00ffc6;
      }
    </style>
  </defs>
  <path class="st0" d="M356.8,22.6c91.4,9.8,177.8,90.8,185.1,183.6,8.1,103.2-83.5,243.1-137.1,329.1-20.6,33-44.1,74.8-66.7,105.3s-2.5,5.2-6.1,4.3c-27.4-43.6-56.4-86.4-83.3-130.4-50.3-82.4-131.8-209.6-124-308.3,7.3-92.8,93.7-173.8,185.1-183.6,11.5-1.2,35.4-1.2,46.9,0ZM322.3,153.4c-98.6,12.9-82.7,165.8,19.9,155.2,101.4-10.4,85.6-169.1-19.9-155.2Z"/>
</svg>