<?xml version="1.0" encoding="UTF-8"?>
<svg id="Layer_1" xmlns="http://www.w3.org/2000/svg" version="1.1" viewBox="0 0 800 800">
  <!-- Generator: Adobe Illustrator 29.7.1, SVG Export Plug-In . SVG Version: 2.1.1 Build 8)  -->
  <defs>
    <style>
      .st0 {
        fill: #fff;
      }

      .st1 {
        fill-rule: evenodd;
      }

      .st1, .st2 {
        fill: #0b77b8;
      }

      .st3 {
        fill: #286591;
      }
    </style>
  </defs>
  <g id="Icons">
    <g id="Color-">
      <rect class="st2" width="800" height="800" rx="151.3" ry="151.3"/>
      <path class="st1" d="M286.8,800c-4.2,1.8-9.6,2.3-16.4,1.1-1-.4-2.1-.7-3.1-1.1h19.6Z"/>
      <path class="st1" d="M532.9,800c-1,.3-2,.7-3,1-7.1,1.4-12.7.8-16.9-1h19.9Z"/>
    </g>
  </g>
  <path class="st3" d="M800,151.3v497.5c0,83.5-67.7,151.3-151.3,151.3h-115.8c-1,.3-2,.7-3,1-7.1,1.4-12.7.8-16.9-1h-113.1V0h248.7c83.5,0,151.3,67.7,151.3,151.3Z"/>
  <path class="st0" d="M565.6,685.7v-402.4l-115.9,93.9v171.9l-2,2h-98.6l-2-2v-169.2l-109.3-97.9v405.1c-2.3.6-2.7-1-4-2-9.9-7.6-26.3-25.6-35.3-35.3-54.4-58.9-67.2-90.3-71.3-171.2-6-119.3,1.8-241.4-1.4-361.2l2.1-4.6h105.3l168.1,155.8,162.4-154.5h107.9l2.1,4.6c-3.7,118.3,4.6,239.2,0,357.2-3.8,96.6-33.5,134.5-97.3,201.2-2.9,3-6.7,7.9-10.7,8.6Z"/>
</svg>