<?xml version="1.0" encoding="UTF-8"?>
<svg id="svg9" xmlns="http://www.w3.org/2000/svg" version="1.1" xmlns:svg="http://www.w3.org/2000/svg" viewBox="0 0 666.7 666.7">
  <!-- Generator: Adobe Illustrator 29.7.1, SVG Export Plug-In . SVG Version: 2.1.1 Build 8)  -->
  <defs>
    <style>
      .st0 {
        fill: #00ffc6;
      }
    </style>
  </defs>
  <path class="st0" d="M146.9,17.7l74.7,193.1c4.9,16.8-16.4,26.7-19.7,37.7-7.4,25,42.8,99.2,59.5,122,11.8,16.1,66.3,81.4,80.2,87.6,14.4,6.4,28.5-6.9,41.4-7,16.5,0,145.6,122.8,168.7,142.6-28.7,37.9-70.5,85.4-120.2,60.4C268.2,571.9,102.3,338.6,57.8,163.6,31.6,60.5,48.3,52.1,146.9,17.7Z"/>
  <path class="st0" d="M615.5,351.2c-8.4,8.4-23.7,8.8-31.4-.9-7-8.9-23.4-72.5-32.1-92.2-16-36.3-38.9-72.6-64.6-102.8-25.6-30.1-60.9-53.4-85.3-83-5.9-7.1-6.5-17.5-.8-24.8,14-18,44.1,9.9,61.6,24.4,57.2,47.7,109.4,123.6,136.6,192.9,7.2,18.2,30,72.6,16.1,86.5Z"/>
  <path class="st0" d="M353.9,172.7c-5.8-7-9-16.6-4.7-25.3,17.4-35.2,70.8,25.8,83.8,40.5,26.1,29.6,87.2,124.3,81.2,161.6-1.8,11.5-11.1,21.2-23.4,18.7-14.4-3.7-28.4-60.4-36.8-77.1-11.8-23.7-30.6-51-47.8-71-14.3-16.6-41.6-34.3-52.5-47.3Z"/>
  <path class="st0" d="M417.1,439c33.7-7.6,47.3-5.9,75.1,13.9,12.2,8.7,77.6,63.8,84,72.6,14.2,19.6,6.6,33.9-10.6,47.8-44.6-40.9-96.9-76.1-140.4-118.3-5.3-5.1-10.2-7.1-8.2-16.1Z"/>
  <path class="st0" d="M177.6,7.7c14-4.6,27.9-1.4,36.9,10.1,6.1,7.7,39.3,91,42.3,103.5,6.8,28.8,6.1,52.1-15.2,74.5L169.5,24.5c-2.7-7.9,0-14.2,8.1-16.8Z"/>
</svg>