<?xml version="1.0" encoding="UTF-8"?>
<svg id="Layer_1" xmlns="http://www.w3.org/2000/svg" version="1.1" viewBox="0 0 800 800">
  <!-- Generator: Adobe Illustrator 29.7.1, SVG Export Plug-In . SVG Version: 2.1.1 Build 8)  -->
  <defs>
    <style>
      .st0 {
        fill: #fff;
      }

      .st1 {
        fill: #00ab00;
      }
    </style>
  </defs>
  <path class="st1" d="M390.5,3.8l37.4.8c293.2,22.1,464.9,344.8,312.4,599.3-147.1,245.5-500.3,258.7-664.8,24C-106.8,367.8,75.6,13.3,390.5,3.8ZM385,593.2h52l20-112.6,23.7,15.2c92.4,49.9,196.3-26.3,174.7-130.1-13.8-66.1-74.6-102.2-140-90.9-43.8,7.6-78.2,41.1-88.5,84-8.4-15.2-14.3-32.5-19.4-49.1-3.1-10.2-4.6-21.4-9.1-30.9h-90.9v127.4c0,33.8-27.8,61.2-62.2,57.6-26.6-2.8-49.9-31.5-49.9-57.6v-127.4h-52.6v127.5c8,120.4,170.6,145.3,210,34,12.5-35.3,5.7-80,7.1-117.4,0-1.4-.9-4.3,1.1-4,9.7,40.7,28.1,79.2,51.4,113.7l-27.4,160.6Z"/>
  <path class="st0" d="M385,593.2l27.4-160.6c-23.4-34.5-41.7-73-51.4-113.7-2-.3-1.1,2.6-1.1,4-1.5,37.5,5.4,82.1-7.1,117.4-39.5,111.3-202,86.5-210.1-34v-127.5h52.6v127.4c0,26.1,23.3,54.8,49.9,57.6,34.3,3.6,62.2-23.8,62.2-57.6v-127.4h90.9c4.5,9.4,6,20.6,9.1,30.9,5.1,16.6,11.1,34,19.4,49.1,10.3-43,44.7-76.4,88.5-84,65.5-11.4,126.2,24.8,140,90.9,21.7,103.8-82.2,180-174.7,130.1l-23.7-15.2-20,112.6h-52ZM533.3,320.4c-32.5,3.2-48.9,27.1-58.4,55.9-2.7,8.2-10.9,40-8.2,46.5s9.7,12.2,11.3,13.8c23.5,23.7,61.9,36.7,92.8,19.6,59.6-33.1,38.3-143.3-37.6-135.9Z"/>
  <path class="st1" d="M533.3,320.4c75.8-7.5,97.2,102.8,37.6,135.9-30.9,17.1-69.3,4.1-92.8-19.6-1.6-1.6-10.8-12.5-11.3-13.8-2.7-6.5,5.5-38.3,8.2-46.5,9.4-28.8,25.8-52.7,58.4-55.9Z"/>
</svg>